Simulation
nRows=44
nColumns=15
endheader
time  TH_x TH_y TH_z SC_y  SC_z  SC_x  AC_y  AC_z  AC_x  GH_y  GH_z  GH_yy  EL_x  PS_y
2.681  0.000000  0.000000  0.000000  -20.652225952067646  5.919452410977415  -6.355938178397657  50.71078514155664  8.831034301837088  4.7078843901693  -19.29182593603175  10.284594638752734  50.8542204221548  15.856129098900603  120.000000
2.73462  0.000000  0.000000  0.000000  -20.346862162731338  5.738023504897165  -6.4630005720271155  50.95725609215919  9.2316328608387  4.858192067594538  -19.23052999165103  8.248438864920475  54.062653287364874  16.920250848677114  120.000000
2.78824  0.000000  0.000000  0.000000  -20.408554394346925  5.644759096566784  -6.380748186980598  51.20075597487858  9.716094614262852  4.946739040710896  -17.29166224305513  6.464238501490048  54.63189085730631  17.78151806368876  120.000000
2.84186  0.000000  0.000000  0.000000  -20.741226327804156  5.615716819319759  -6.159309963309182  51.409973386049295  10.246841415068296  4.968607286352591  -12.728634067301204  4.958998466827935  51.88242437891437  18.39991213078878  120.000000
2.89548  0.000000  0.000000  0.000000  -21.22198240459799  5.622073852557933  -5.8451939786752405  51.57665203815176  10.786662702268028  4.92926424735432  -4.856538814590889  3.7865870917437365  45.255246673923736  18.7700863238008  120.000000
2.9491  0.000000  0.000000  0.000000  -21.735694179747746  5.6368001485031165  -5.476729870452386  51.709325578825066  11.302622410155815  4.840289897510168  6.2854419417408165  2.9879366057166323  34.92844516401693  18.912055705780915  120.000000
3.00272  0.000000  0.000000  0.000000  -22.198681103480144  5.6404733100764  -5.086691838998127  51.82470256633784  11.768694340267073  4.714791620221209  18.81087963578507  2.546477547922003  22.910430967917193  18.86938380831319  120.000000
3.05634  0.000000  0.000000  0.000000  -22.565516423507997  5.62105839491901  -4.703997866677118  51.93796874330991  12.166811539513489  4.567125051484595  29.471089341488135  2.374181124574331  12.544186103251388  18.703162198259815  120.000000
3.10996  0.000000  0.000000  0.000000  -22.821721838772408  5.573434468907868  -4.3542411099693465  52.058699676534005  12.487564585966004  4.412940451664834  36.294642654376574  2.3629327378582996  5.870574451385779  18.479388524258514  120.000000
3.16358  0.000000  0.000000  0.000000  -22.972123843175233  5.497940908132486  -4.060814648644191  52.19025083952623  12.730826787776873  4.268778700130381  39.48606719553058  2.4422868124623878  2.7365058588725235  18.252830684220953  120.000000
3.2172  0.000000  0.000000  0.000000  -23.032883392933716  5.398167184452249  -3.8374284284485465  52.32975567718693  12.899525841438066  4.147611082929571  40.23238845236189  2.582671196634086  1.9921481245142534  18.05434262073618  120.000000
3.27082  0.000000  0.000000  0.000000  -23.024398888120768  5.281939936804634  -3.6864907575333796  52.47177143179572  12.99800450763454  4.056358758568767  39.73553124967415  2.774876122626056  2.4610078423163158  17.88921343259458  120.000000
3.32444  0.000000  0.000000  0.000000  -22.96615703061802  5.161245059723495  -3.6042696207149554  52.61151509585893  13.03451267968428  3.9968265046588485  38.86672535913344  3.0171703946443067  3.287233304583703  17.746799383604174  120.000000
3.37806  0.000000  0.000000  0.000000  -22.874126545824822  5.048620948598713  -3.5848124858922565  52.744573113401046  13.019761472752577  3.967672545632869  38.098664003669725  3.3096205640565812  4.006152782818847  17.612569854393872  120.000000
3.43168  0.000000  0.000000  0.000000  -22.760183830398358  4.953649184081172  -3.622635078644849  52.865180361906475  12.96375734831684  3.966491332352479  37.58136927027079  3.651986239462933  4.470974325042488  17.477491152109273  120.000000
3.4853  0.000000  0.000000  0.000000  -22.63126963477219  4.880955355589678  -3.7137572607363807  52.96574250360547  12.873134511097057  3.991037204229078  37.25925723029764  4.043149084290976  4.738537652508858  17.341383762217443  120.000000
3.53892  0.000000  0.000000  0.000000  -22.489000711705007  4.8300383845425054  -3.8560806758467874  53.03825085948426  12.750206588114004  4.039202110804114  36.98208488663579  4.481536142366787  4.960123892981248  17.21030095039076  120.000000
3.59254  0.000000  0.000000  0.000000  -22.328647013935054  4.7961478366473065  -4.049378107551169  53.07679641497075  12.593779018565145  4.108519140576131  36.5682559979345  4.965839849863753  5.319860696867085  17.089834202472666  120.000000
3.64616  0.000000  0.000000  0.000000  -22.13954259595173  4.771481826962268  -4.29476597427482  53.07901877855839  12.400842087433878  4.196467813030309  35.83592714793773  5.4964389549196335  6.004000606011585  16.978169649168766  120.000000
3.69978  0.000000  0.000000  0.000000  -21.906119125068823  4.74632389274366  -4.5941781069687  53.04760493825462  12.169074761230291  4.30048829392847  34.625629527380795  6.078484074408835  7.176813567906421  16.862303827509386  120.000000
3.7534  0.000000  0.000000  0.000000  -21.612463854518726  4.710226516117658  -4.949981973968691  52.98977200756027  11.898785568906808  4.418440366409258  32.83099739198979  6.726344175856343  8.94445736137757  16.72005535697913  120.000000
3.80702  0.000000  0.000000  0.000000  -21.24852776345058  4.65242804643766  -5.364926017741729  52.91554472380741  11.593794405875169  4.548359085956023  30.427942445071167  7.4675076570603585  11.317950958831739  16.525279169450748  120.000000
3.86064  0.000000  0.000000  0.000000  -20.81752528168  4.5625312168075185  -5.841645884925009  52.83441499661224  11.260809244454288  4.689407319136332  27.501224905012958  8.344123554947554  14.17820517265711  16.253715861307253  120.000000
3.91426  0.000000  0.000000  0.000000  -20.33827623439872  4.4302107594662266  -6.3822809495351835  52.75301736888017  10.90919315377439  4.843096874879327  24.23253592819942  9.409946275295605  17.28482960900619  15.886760845464833  120.000000
3.96788  0.000000  0.000000  0.000000  -19.8412195791801  4.246880025089504  -6.9871523926548695  52.676320250104084  10.552216042743655  5.013346712667704  20.840537378083496  10.723971073278916  20.341893451408207  15.412834946157608  120.000000
4.0215  0.000000  0.000000  0.000000  -19.359172174333693  4.011835776227372  -7.653738052801025  52.6139949915084  10.210093336503029  5.204979529751669  17.507258687079887  12.345188631737475  23.086861805531576  14.831557592566517  120.000000
4.07512  0.000000  0.000000  0.000000  -18.920690779998022  3.7323015124238412  -8.374784507057472  52.582496203491225  9.91114212969762  5.426191937209673  14.330128314683545  14.328959132202323  25.35629628087417  14.162630169605277  120.000000
4.1287400000000005  0.000000  0.000000  0.000000  -18.54903019918169  3.419116036036911  -9.135243785406685  52.60277447757404  9.689953274712549  5.690640664583558  11.333863628108809  16.723827227608865  27.088379205985852  13.453529259637872  120.000000
4.18236  0.000000  0.000000  0.000000  -18.265646491830086  3.086509502802752  -9.91190522118045  52.70152676547059  9.584452313376179  6.011894275416767  8.522946195991613  19.56614858790914  28.273973850419612  12.776040429106821  120.000000
4.23598  0.000000  0.000000  0.000000  -18.09318290756122  2.7508391831933956  -10.674007531837315  52.90705476405526  9.630916231689296  6.398058249596231  5.9072196968213335  22.867032240265036  28.921567945665757  12.207133100881585  120.000000
4.2896  0.000000  0.000000  0.000000  -18.050309262112858  2.4300211879226667  -11.382132770795081  53.24157874933225  9.86029473736251  6.846867721170747  3.4957729692729123  26.595268996122407  29.047241351675655  11.799906295205465  120.000000
4.3432200000000005  0.000000  0.000000  0.000000  -18.141365688496908  2.1489401365859306  -11.989798950604534  53.72272627392868  10.299473919470133  7.3383215650899425  1.2902570438506533  30.66695517147315  28.669379755866288  11.560138545677562  120.000000
4.39684  0.000000  0.000000  0.000000  -18.345319469733678  1.9306123968595958  -12.444745172188608  54.351501322624294  10.973285088270679  7.8457292877470035  -0.7299922559387908  34.943295062309524  27.823169691454098  11.443464723961336  120.000000
4.45046  0.000000  0.000000  0.000000  -18.623180822834968  1.7866670237457285  -12.701802178880692  55.09938862073515  11.906148230142769  8.355447029859091  -2.603317839345786  39.244737344704134  26.567134431299177  11.378533930756863  120.000000
4.50408  0.000000  0.000000  0.000000  -18.926580529895816  1.7248287160674225  -12.738042190561202  55.92727258129021  13.109136072828834  8.853003993606203  -4.362552812212733  43.38399283269125  24.97839944036949  11.299045747907366  120.000000
4.5577000000000005  0.000000  0.000000  0.000000  -19.21266417069379  1.753958133293769  -12.538403897669188  56.795537163319636  14.551456186238255  9.310927508806392  -6.021471253170148  47.20189242935392  23.156331493331543  11.169080258234734  120.000000
4.61132  0.000000  0.000000  0.000000  -19.458600715606238  1.8786421306896395  -12.075069464822688  57.653345134237824  16.15066480883844  9.708264859962021  -7.571296205878979  50.59610886998957  21.22312174414428  10.990543026079859  120.000000
4.66494  0.000000  0.000000  0.000000  -19.662491998458506  2.099927884018986  -11.309631421900015  58.443506980825774  17.785334735892825  10.038859089634398  -8.981428598246962  53.5306395476061  19.30965426985177  10.791478295972052  120.000000
4.71856  0.000000  0.000000  0.000000  -19.843575544459817  2.4193348758339615  -10.208159628057308  59.11267353867208  19.318306027070552  10.30652458695311  -10.211489816088534  56.024719877997384  17.535571281287115  10.608740129422467  120.000000
4.7721800000000005  0.000000  0.000000  0.000000  -20.03642781679236  2.8330544892167318  -8.7536126085697  59.617365634487804  20.626235089708622  10.525769439931626  -11.22503087807827  58.131673320876885  15.987366292040559  10.474041033371874  120.000000
4.8258  0.000000  0.000000  0.000000  -20.277258820020563  3.3289789521459494  -6.95623331064208  59.93532456249224  21.62436368148869  10.71464541824758  -11.995970641866446  59.917773365690394  14.703540241408303  10.409976010787808  120.000000
4.87942  0.000000  0.000000  0.000000  -20.594819435235475  3.8843749807452057  -4.856521262929399  60.06695076416263  22.276664771991598  10.888722402688417  -12.517608599421555  61.4475460348754  13.677472359933269  10.430467145112306  120.000000
4.93304  0.000000  0.000000  0.000000  -21.005611387317597  4.46932430948056  -2.5218508136440585  60.03252939434712  22.592475889551938  11.055088175346693  -12.80606141644569  62.77474638143847  12.869790020105723  10.543117495628882  120.000000
4.9866600000000005  0.000000  0.000000  0.000000  -21.5097018664452  5.0501283028989565  -0.039128593915689416  59.867626037853306  22.61550846750428  11.212339756675645  -12.895323867216376  63.94017862728295  12.220890781559769  10.750782212357507  120.000000
